<svg id="Layer_1" data-name="Layer 1" xmlns="http://www.w3.org/2000/svg" viewBox="0 0 155.52 145.56"><defs><style>.cls-1{fill:#e8584e;}</style></defs><title>logo-mark</title><path class="cls-1" d="M33.29,103.56a21.49,21.49,0,0,1,3.35,2.22l-2,2.62L31.48,106Z"/><path class="cls-1" d="M46.86,85.65A23.61,23.61,0,0,0,50,88.09L39,102.61a20.33,20.33,0,0,0-3.3-2.26Z"/><path class="cls-1" d="M66.45,66.42l-0.27.36-0.41.54-0.59.77L63.78,70,52.47,84.88a24,24,0,0,1-3.21-2.44L60,68.23l2-2.71,0.72-1,0.32-.36L63.24,64l1.49,1.13,0.09,0v0h0v0l0,0Z"/><path class="cls-1" d="M71.47,87.46a19,19,0,0,1-3.94.81L63.78,70l-0.5-2.4L63,66.29l-0.14-.68,1.95-.41h0l1.95-.41,0,0.18v0.09l0.09,0.41,0.18,0.86,0.23,1.13,0.59,2.9Z"/><path class="cls-1" d="M80.2,129.66l-3.94.81L68.35,92.21a19,19,0,0,0,3.94-.81Z"/><path class="cls-1" d="M71.34,67.92L84,78.32a23.82,23.82,0,0,1-2.58,3.08l-13.53-11L65.18,68.1l-0.9-.77-0.68-.59h0l0.81-1,0.09-.14,0.36-.41v0h0v0l1.27-1.49,0.68,0.54,0.59,0.5,1.13,1Z"/><path class="cls-1" d="M100,91.39a24.61,24.61,0,0,0-2.53,3.12L84.59,83.93a20.33,20.33,0,0,0,2.53-3.08Z"/><path class="cls-1" d="M118.16,106.23l-2.53,3.12L100.6,97a18.66,18.66,0,0,1,2.53-3.12Z"/><path class="cls-1" d="M72,63.94l16.06,1.72a19.16,19.16,0,0,1-.41,4L71.34,67.92l-4-.45-1.58-.14-0.9-.09h0l-0.18,0,0.18-1.95v0h0v0L65,63.21l0.63,0,0,0,1,0.09L68,63.53,72,63.94h0Z"/><path class="cls-1" d="M121.82,69.27a10.84,10.84,0,0,0-.5,4L91.65,70.09a22.84,22.84,0,0,0,.41-4Z"/><path class="cls-1" d="M132,70.36l-0.45,4-6.24-.68a7.05,7.05,0,0,1,.63-3.94Z"/><path class="cls-1" d="M84.82,53.31a17.85,17.85,0,0,1,1.76,3.62L72,63.94h0l-3.44,1.72-1.4.68-1,.45L65.73,67l-0.81-1.72,0,0v0h0v0L64,63.39l0.27-.14,0.86-.41,1.54-.77,3-1.45Z"/><path class="cls-1" d="M122.54,39.51L90.2,55.16a22.09,22.09,0,0,0-1.81-3.57l32.34-15.65A14.75,14.75,0,0,0,122.54,39.51Z"/><path class="cls-1" d="M132.54,34.67l-6.33,3.08a12.67,12.67,0,0,1-1.81-3.57L130.82,31Z"/><path class="cls-1" d="M32.71,36.89a12.16,12.16,0,0,1-2.4,3.21L12.71,26l2.53-3.12Z"/><path class="cls-1" d="M35.92,39.46l9,7.19a23.21,23.21,0,0,0-2.53,3.12l-8.91-7.15A19,19,0,0,0,35.92,39.46Z"/><path class="cls-1" d="M66.09,63.62l-1.22,1.54v0h0v0l-0.36.41-0.09.14-0.77,1h0L63,66.29l-0.95-.77L60.3,64.07,45.51,52.27A20.84,20.84,0,0,1,48,49.19L62.52,60.77l1.72,1.36,0.86,0.72,0.59,0.41,0,0Z"/><path class="cls-1" d="M74.37,44A19.28,19.28,0,0,1,77.9,46L69.66,60.63,68,63.53,67.4,64.7l-0.45.77-0.36.68-1.72-1h0v0l-0.09,0-1.63-.9L63.24,64l0.32-.59,0.68-1.27,2.17-3.8v0Z"/><path class="cls-1" d="M83.37,36.21l-3.53,6.24a22.16,22.16,0,0,0-3.53-1.9l3.62-6.47A9.73,9.73,0,0,0,83.37,36.21Z"/><path class="cls-1" d="M88.71,26.66l-3.35,6A7,7,0,0,1,82,30.42l3.21-5.74Z"/><path class="cls-1" d="M64.82,37.93a22.19,22.19,0,0,0-3.89.32L58.76,6.62l4-.27L65,37.93H64.82Z"/><path class="cls-1" d="M66.86,65v0.09l-2,.14h0l-2,.14,0-.77-0.09-1-0.18-2.8-1.27-18.5A18.76,18.76,0,0,1,64.82,42a1.54,1.54,0,0,1,.45,0l1.13,16.28v0l0.23,3.75,0.09,1.31,0.09,0.81Z"/><path class="cls-1" d="M37.86,68.73a22.45,22.45,0,0,0,.77,3.94L5.38,79.59,4.57,75.65Z"/><path class="cls-1" d="M65.23,67.15l-0.36.09h0l-0.54.09-1,.23L60,68.23,42.57,71.85a19,19,0,0,1-.81-3.94L60.3,64.07l2.4-.5,0.86-.18,0.68-.14,0.23,0,0.36,1.95v0h0v0Z"/><path class="cls-1" d="M88.12,65.2a1.54,1.54,0,0,1,0,.45,19.16,19.16,0,0,1-.41,4A22.74,22.74,0,0,1,84,78.32a23.82,23.82,0,0,1-2.58,3.08,23,23,0,0,1-10,6.06,19,19,0,0,1-3.94.81,18.26,18.26,0,0,1-2.71.18,22.94,22.94,0,0,1-12.35-3.57,24,24,0,0,1-3.21-2.44,23.1,23.1,0,0,1-6.69-10.58,19,19,0,0,1-.81-3.94,17.83,17.83,0,0,1-.18-2.71,23,23,0,0,1,3.94-12.94A20.84,20.84,0,0,1,48,49.19a22.68,22.68,0,0,1,13.21-6.92A18.76,18.76,0,0,1,64.82,42a1.54,1.54,0,0,1,.45,0,21.39,21.39,0,0,1,9.09,2A19.28,19.28,0,0,1,77.9,46a22.81,22.81,0,0,1,6.92,7.33,17.85,17.85,0,0,1,1.76,3.62A22.82,22.82,0,0,1,88.12,65.2Z"/><path class="cls-1" d="M43.38,120.3a18.91,18.91,0,1,1-18.91-18.91,19.27,19.27,0,0,1,8.82,2.17,21.49,21.49,0,0,1,3.35,2.22A19.1,19.1,0,0,1,43.38,120.3Z"/><path class="cls-1" d="M135.3,107.41a18.91,18.91,0,0,1-37.82,0,19.27,19.27,0,0,1,5.65-13.48A18.9,18.9,0,0,1,135.3,107.41Z"/><path class="cls-1" d="M151,29.87a13.63,13.63,0,0,1-24.74,7.87,12.67,12.67,0,0,1-1.81-3.57,12.43,12.43,0,0,1-.72-4.3A13.64,13.64,0,0,1,151,29.87Z"/><path class="cls-1" d="M34.2,32.59a13.85,13.85,0,0,1-1.49,4.3,12.16,12.16,0,0,1-2.4,3.21,13.51,13.51,0,0,1-11.76,3.8A13.64,13.64,0,1,1,34.2,32.59Z"/><path class="cls-1" d="M94.72,25.67a7.28,7.28,0,0,1-7.28,7.28,6.26,6.26,0,0,1-2.08-.32A7,7,0,0,1,82,30.42a7.12,7.12,0,0,1-1.81-4.75A7.28,7.28,0,0,1,94.72,25.67Z"/><path class="cls-1" d="M139.14,75.83a7.24,7.24,0,0,1-4.12,3.8,7.42,7.42,0,0,1-5.56-.27,7.22,7.22,0,0,1-3.75-4.07,10.71,10.71,0,0,1-.41-1.63,7.05,7.05,0,0,1,.63-3.94,7.24,7.24,0,0,1,4.12-3.8,8,8,0,0,1,2.49-.45,7.24,7.24,0,0,1,6.83,4.79A7.2,7.2,0,0,1,139.14,75.83Z"/></svg>