<?xml version="1.0" encoding="utf-8"?>
<!-- Generator: Adobe Illustrator 19.2.1, SVG Export Plug-In . SVG Version: 6.00 Build 0)  -->
<!DOCTYPE svg PUBLIC "-//W3C//DTD SVG 1.1//EN" "http://www.w3.org/Graphics/SVG/1.1/DTD/svg11.dtd">
<svg version="1.1" id="Layer_1" xmlns="http://www.w3.org/2000/svg" xmlns:xlink="http://www.w3.org/1999/xlink" x="0px" y="0px"
	 viewBox="0 0 677.9 661.2" style="enable-background:new 0 0 677.9 661.2;" xml:space="preserve">
<style type="text/css">
	.st0{fill:#E8584E;}
</style>
<g>
	<path class="st0" d="M0,326.7c0.2-2.8,0.4-5.7,0.6-8.5c1.2-11.6,2.1-23.3,4-34.8c3.3-21.5,9-42.5,16.7-62.8
		c19.6-52.1,50-96.8,91.3-133.9c34.2-30.7,73-53.6,116.5-68.4c17.1-5.8,34.4-10.3,52.1-13.4C303.5,1,326-0.6,348.7,0.2
		c17,0.5,33.9,2.2,50.6,5.2c35.4,6.3,68.9,18.1,100.5,35.2c35.3,19.1,66.2,43.6,92.8,73.6c31.6,35.6,54.6,76,69.2,121.3
		c5.8,18.2,10,36.9,12.7,55.8c3.1,21.9,4.1,43.8,2.8,65.8c-2.8,53-17.3,102.7-43.4,149c-19.2,33.8-43.4,63.4-72.7,88.9
		c-27,23.5-57.1,42.3-90.1,56.3c-7.9,3.3-16.1,6.3-24.1,9.2c-4.6,1.6-9.4,1.5-14-0.2c-5.9-2.1-10-7.7-10-14.1
		c-0.1-15,0.1-29.8,0.1-44.8c0-17.6,0.2-35.2,0.1-52.7c-0.1-15-2.8-29.3-9.8-42.8c-3.2-6.1-7.1-11.6-12.3-16.2
		c-0.2-0.1-0.4-0.4-0.7-0.7c3.6-0.5,7.1-1,10.5-1.5c14.9-2,29.5-5,43.7-9.4c13.5-4.3,26.4-9.9,38.4-17.6
		c20.5-13.1,35.8-30.9,45.9-53c6.4-13.9,10.4-28.6,13-43.6c2.5-14.7,3.5-29.5,3.2-44.3c-0.5-33.4-11.5-62.9-33.9-87.8
		c-0.7-0.7-0.9-1.4-0.5-2.4c4.1-10.6,5.9-21.8,6.3-33c0.6-18.6-3-36.5-9.5-53.8c-0.5-1.2-1.1-1.7-2.5-1.9
		c-8.8-1.1-17.2,0.2-25.6,2.5c-17,4.5-32.4,12.1-47.4,21c-5.8,3.5-11.4,7.2-17.1,10.6c-0.7,0.4-1.9,0.6-2.6,0.4
		c-12.6-3.3-25.4-6.1-38.2-7.8c-19.6-2.6-39.1-3.7-58.8-2.8c-22.3,1-44.2,4-65.6,9.7c-4.1,1.1-7.1,0.6-10.5-1.7
		c-15.1-10.1-30.8-18.9-47.9-25.4c-8.9-3.3-18.1-6.1-27.6-6.8c-3.8-0.4-7.7,0-11.5,0.2c-0.6,0-1.4,0.7-1.6,1.4
		c-4.3,11-7.3,22.4-8.8,34.2c-1.2,9.8-1.4,19.6-0.2,29.5c0.9,8.2,2.6,16.1,5.6,23.8c0.4,1,0.2,1.6-0.4,2.4
		c-15.3,17.2-25.9,37-30.8,59.7c-2.7,12.6-3.7,25.4-3.1,38.2c0.4,8.7,0.9,17.3,1.9,25.9c3.1,25.4,10.1,49.3,24.6,70.7
		c10.5,15.6,24,28,40.2,37.4c16,9.4,33.2,15.6,51.1,19.6c10.4,2.2,21,3.7,31.6,5.6c1.5,0.2,3,0.5,4.6,0.6c-2,2.2-4.1,4.2-5.8,6.4
		c-7.4,9.3-11.6,20.1-14.1,31.6c-0.4,1.6-0.9,3.2-0.9,4.8c-0.1,2-1.1,2.8-2.8,3.6c-12.1,5-24.5,8-37.6,7.8
		c-19.4-0.4-35.6-7.9-48.3-22.7c-4-4.6-7.3-9.9-10.6-15c-9-13.9-20.4-25-36.1-30.9c-7.9-3-16.2-4.6-24.8-2.2
		c-1.2,0.4-2.5,0.7-3.6,1.5c-2.6,1.5-3.5,3.8-1.9,6.3c1.7,2.6,3.7,5,6.1,6.9c3.8,3.1,8,5.6,12,8.5c10.5,8,18.3,18.4,24.5,30
		c2.6,4.8,5,9.9,7.1,15c5.6,14,15.1,24.5,27.7,32.3c10.8,6.7,22.7,10.3,35.2,11.9c12.3,1.6,24.5,1.1,36.6-0.6
		c4.6-0.7,9.2-1.6,13.6-2.4c0.5-0.1,0.9-0.1,1.5-0.1c0,0.6,0.1,1.1,0.1,1.6c0.1,20.2,0.2,40.3,0.4,60.5c0,5.3-1.2,9.9-5.2,13.6
		c-3.7,3.5-8.4,4.3-13.4,4.2c-3.7-0.1-7.2-1.4-10.6-2.6c-39-14-74.3-34.2-105.9-61C86,569.5,58.8,535.5,38.2,496.1
		C24.1,469,13.9,440.6,7.5,410.7c-3-14.1-5.1-28.5-6.3-42.8c-0.4-4.8-0.5-9.5-0.9-14.4c0-0.6-0.1-1.4-0.2-2C0,342.7,0,334.6,0,326.7
		z"/>
</g>
</svg>
