<svg id="Layer_1" data-name="Layer 1" xmlns="http://www.w3.org/2000/svg" viewBox="0 0 169.2 169.2"><defs><style>.cls-1{fill:#e8584e;}</style></defs><title>logo-favicon</title><path class="cls-1" d="M52,98.43a27.52,27.52,0,0,0,3.47,2.63l-12,15.81a23.39,23.39,0,0,0-3.6-2.47Z"/><path class="cls-1" d="M88.24,146.26l-4.26.88L75.4,105.58a27.41,27.41,0,0,0,4.27-.89Z"/><path class="cls-1" d="M95.2,93.22l14.3,11.46a22.65,22.65,0,0,0-2.61,3.37L92.66,96.59c1-1,1.54-2.17,2.54-3.36h0Z"/><path class="cls-1" d="M133.49,80.6a12.1,12.1,0,0,0-.61,4.32l-32.16-3.43a26.88,26.88,0,0,0,.45-4.33Z"/><path class="cls-1" d="M132.3,44.37a18.51,18.51,0,0,0,2,3.9l-35.15,17a26.75,26.75,0,0,0-1.91-3.92Z"/><path class="cls-1" d="M40.09,48.22L49.85,56a27.64,27.64,0,0,0-2.72,3.39l-9.68-7.74A18.61,18.61,0,0,0,40.09,48.22Z"/><path class="cls-1" d="M88,42.39a12.42,12.42,0,0,0,3.72,2.28l-3.8,6.8A28.89,28.89,0,0,0,84.1,49.3Z"/><path class="cls-1" d="M71.56,46.46a29.42,29.42,0,0,0-4.22.35L65,12.55l4.34-.31,2.38,34.22H71.56Z"/><path class="cls-1" d="M42.18,80.06a26.14,26.14,0,0,0,.89,4.26L6.94,91.81,6.06,87.55Z"/><path class="cls-1" d="M96.85,76.2A25.28,25.28,0,1,1,71.57,50.92,25.31,25.31,0,0,1,96.85,76.2Z"/><path class="cls-1" d="M48.22,136.08a20.54,20.54,0,1,1-20.54-20.55A20.56,20.56,0,0,1,48.22,136.08Z"/><path class="cls-1" d="M148.15,122.07a20.54,20.54,0,1,1-20.55-20.54A20.57,20.57,0,0,1,148.15,122.07Z"/><path class="cls-1" d="M165.14,37.82A14.82,14.82,0,1,1,150.32,23,14.83,14.83,0,0,1,165.14,37.82Z"/><path class="cls-1" d="M38.26,40.78A14.81,14.81,0,1,1,26,23.79,14.83,14.83,0,0,1,38.26,40.78Z"/><path class="cls-1" d="M104,33.24a7.91,7.91,0,1,1-7.91-7.91A7.92,7.92,0,0,1,104,33.24Z"/><path class="cls-1" d="M147.87,91.87a7.92,7.92,0,0,1-10.15-4.72,7.8,7.8,0,0,1-.48-2.71A7.92,7.92,0,0,1,142.43,77a7.82,7.82,0,0,1,2.72-.49A7.92,7.92,0,0,1,147.87,91.87Z"/></svg>