<svg id="Layer_2" data-name="Layer 2" xmlns="http://www.w3.org/2000/svg" viewBox="0 0 169.2 154.27"><defs><style>.cls-1{fill:none;stroke:#e8584e;}.cls-1,.cls-2{stroke-miterlimit:10;stroke-width:4.36px;}.cls-2{fill:#e8584e;stroke:#fff;}</style></defs><title>logo-mark</title><line class="cls-1" x1="71.11" y1="68.73" x2="36.58" y2="114.36"/><line class="cls-1" x1="71.11" y1="68.73" x2="85.66" y2="139.24"/><line class="cls-1" x1="71.11" y1="68.73" x2="127.65" y2="115.03"/><line class="cls-1" x1="71.11" y1="68.73" x2="143.85" y2="76.49"/><line class="cls-1" x1="71.11" y1="68.73" x2="143.75" y2="33.58"/><line class="cls-1" x1="71.11" y1="68.73" x2="15.82" y2="24.48"/><line class="cls-1" x1="71.11" y1="68.73" x2="95.12" y2="25.77"/><line class="cls-1" x1="71.11" y1="68.73" x2="66.68" y2="4.94"/><line class="cls-1" x1="71.11" y1="68.73" x2="6.05" y2="82.22"/><circle class="cls-2" cx="71.11" cy="68.73" r="27.46"/><circle class="cls-2" cx="27.22" cy="128.61" r="22.72"/><circle class="cls-2" cx="127.14" cy="114.6" r="22.72"/><circle class="cls-2" cx="149.86" cy="30.35" r="16.99"/><circle class="cls-2" cx="23.18" cy="30.95" r="16.99" transform="translate(-11.08 48.89) rotate(-80.81)"/><circle class="cls-2" cx="95.66" cy="25.77" r="10.09"/><circle class="cls-2" cx="144.69" cy="76.97" r="10.09" transform="translate(-17.63 54.35) rotate(-20.08)"/></svg>