<?xml version="1.0" encoding="utf-8"?>
<!-- Generator: Adobe Illustrator 19.2.1, SVG Export Plug-In . SVG Version: 6.00 Build 0)  -->
<!DOCTYPE svg PUBLIC "-//W3C//DTD SVG 1.1//EN" "http://www.w3.org/Graphics/SVG/1.1/DTD/svg11.dtd">
<svg version="1.1" id="Layer_1" xmlns="http://www.w3.org/2000/svg" xmlns:xlink="http://www.w3.org/1999/xlink" x="0px" y="0px"
	 viewBox="0 0 661.2 661.2" style="enable-background:new 0 0 661.2 661.2;" xml:space="preserve">
<style type="text/css">
	.st0{fill:#E8584E;}
</style>
<path class="st0" d="M0,620C0,427.1,0,234.1,0,41.2C3.2,28.5,8.4,16.8,19.9,9.7C26.8,5.5,34.8,3.2,42.3,0C234.5,0,426.7,0,619,0
	c7.8,3.4,16.1,5.9,23.2,10.3c11,7,15.9,18.6,19.1,30.8c0,192.9,0,385.9,0,578.8c-3.2,12.5-8.2,24.1-19.5,31.1
	c-7,4.3-15.1,6.8-22.7,10.1c-192.2,0-384.5,0-576.7,0c-7.5-3.2-15.5-5.5-22.3-9.7C8.4,644.4,3.2,632.7,0,620z M355.9,295.1
	c-0.1-2.2-0.2-3.9-0.2-5.6c0-9.7-0.2-19.4,0.1-29c0.1-4.4-1.4-5.7-5.7-5.6c-29.7,0.2-59.5,0.1-89.2,0.1c-1.5,0-3.1,0.2-4.8,0.3
	c0,99.5,0,198.6,0,297.9c1.2,0.1,2,0.3,2.9,0.3c30.8,0,61.6,0,92.4,0.1c3.7,0,4.4-1.6,4.4-4.8c-0.1-13.9-0.1-27.8,0-41.7
	c0.1-42.8-0.2-85.5,0.5-128.3c0.5-29.1,23.8-51.7,52.9-52.4c20.2-0.5,35.7,7.5,44.3,26.9c6.1,13.9,7.1,28.6,7.2,43.4
	c0.1,50.3,0.1,100.7-0.1,151c0,4.6,1.2,6,5.9,6c29.6-0.2,59.1-0.2,88.7,0c4.7,0,5.9-1.4,5.9-6c-0.2-54.7,0-109.5-0.2-164.2
	c-0.1-20.8-2.4-41.4-9.1-61.3c-7.9-23.3-21-42.8-41.8-56.5c-19.1-12.6-40.5-17.4-63.1-17.7c-26.8-0.3-51.2,6.6-71.2,25.4
	C368.7,279.8,362.9,287.3,355.9,295.1z M100.4,255.2c0,2.2,0,3.7,0,5.3c0,95.7,0,191.5-0.1,287.2c0,4.6,1.2,6,5.9,5.9
	c29.6-0.2,59.1-0.2,88.7,0c4.7,0,5.9-1.4,5.9-6c-0.1-95.6-0.1-191.1-0.1-286.7c0-1.8-0.2-3.7-0.3-5.8
	C166.9,255.2,134,255.2,100.4,255.2z M151.3,111c-29.6,1.4-47.2,14.2-54.8,38.1c-6.8,21.6,4.6,48.4,24.8,58.4
	c16.9,8.3,34.2,9,51.7,2.9c30.1-10.4,42.9-44.8,27.3-72.6C189.1,117.6,170.6,111.1,151.3,111z"/>
</svg>
